<?xml version="1.0"?>
<svg xmlns="http://www.w3.org/2000/svg" height="512px" viewBox="0 -20 480.02036 480" width="512px" class=""><g><path d="m272.582031 64.664062c4.359375-.726562 7.304688-4.847656 6.578125-9.207031-.730468-4.359375-4.851562-7.304687-9.210937-6.578125-106.023438 17.675782-126.351563 117.386719-126.542969 118.363282-.835938 4.339843 2.011719 8.535156 6.351562 9.367187.5.09375 1.003907.144531 1.511719.144531 3.835938-.003906 7.128907-2.730468 7.847657-6.496094.175781-.871093 18.296874-89.730468 113.464843-105.59375zm0 0" data-original="#000000" class="active-path" data-old_color="#000000" fill="#0783F7"/><path d="m308.917969 243.121094-30.34375-30.34375 12.6875-12.6875 30.335937 30.351562c3.125 3.121094 8.1875 3.121094 11.3125 0l24-24c3.125-3.125 3.125-8.1875 0-11.3125l-30.34375-30.34375 14.351563-14.34375c3.125-3.125 3.125-8.195312 0-11.320312s-8.195313-3.125-11.320313 0l-14.34375 14.34375-30.34375-30.34375c-3.125-3.125-8.1875-3.125-11.3125 0l-24 24c-3.121094 3.125-3.121094 8.1875 0 11.3125l30.34375 30.34375-12.6875 12.6875-30.34375-30.34375c-3.125-3.125-8.1875-3.125-11.3125 0l-24 24c-3.121094 3.125-3.121094 8.1875 0 11.3125l30.34375 30.34375-14.34375 14.34375c-3.125 3.125-3.125 8.195312 0 11.320312s8.195313 3.125 11.320313 0l14.34375-14.34375 30.335937 30.34375c3.125 3.121094 8.1875 3.121094 11.3125 0l24-24c1.503906-1.5 2.347656-3.535156 2.351563-5.660156 0-2.121094-.84375-4.160156-2.34375-5.660156zm31.03125-42.34375-12.6875 12.6875-24.6875-24.6875 12.6875-12.6875zm-73.375-48 12.6875-12.6875 24.6875 24.6875-12.6875 12.6875zm-48 48 12.6875-12.6875 24.6875 24.6875-12.6875 12.6875zm60.6875 60.6875-24.6875-24.6875 12.6875-12.6875 24.6875 24.6875zm0 0" data-original="#000000" class="active-path" data-old_color="#000000" fill="#0783F7"/><path d="m361.597656 291.121094c-14.496094 14.25-32.417968 24.527344-52.039062 29.839844-3.988282.871093-6.683594 4.605468-6.25 8.664062.433594 4.0625 3.855468 7.144531 7.9375 7.152344.566406-.003906 1.132812-.066406 1.6875-.183594 22.671875-5.875 43.375-17.664062 60-34.160156 3.125-3.132813 3.117187-8.199219-.011719-11.324219s-8.199219-3.117187-11.324219.011719zm0 0" data-original="#000000" class="active-path" data-old_color="#000000" fill="#0783F7"/><path d="m405.398438 258.640625c-3.125-3.121094-8.1875-3.121094-11.3125 0l-8.480469 8.480469c-3.125 3.125-3.125 8.191406-.003907 11.316406 3.125 3.125 8.191407 3.128906 11.316407.003906l8.480469-8.480468c1.503906-1.5 2.347656-3.535157 2.347656-5.660157s-.84375-4.160156-2.347656-5.660156zm0 0" data-original="#000000" class="active-path" data-old_color="#000000" fill="#0783F7"/><path d="m471.023438 46.832031c-5.585938-18.078125-19.738282-32.230469-37.816407-37.816406-3.761719-.941406-7.855469-1.855469-12.242187-2.710937-1.597656-.3125-3.199219-.582032-4.796875-.878907-1.601563-.296875-3.089844-.527343-4.671875-.800781-26.59375-4.25-53.570313-5.570312-80.449219-3.9375-3.089844.175781-6.195313.390625-9.320313.640625-2.074218.175781-4.128906.359375-6.199218.570313-5.257813.519531-10.535156 1.117187-15.847656 1.886718l-.167969.046875c-50.113281 7.410157-100.882813 26.257813-137.914063 63.289063-65.167968 65.167968-73.558594 188-68.222656 258.71875.039062.570312.078125 1.121094.121094 1.671875.207031 2.570312.40625 5.113281.636718 7.539062.449219 4.71875.882813 8.398438 1.195313 10.757813 2.8125 21.671875 26.261719 36.214844 46.894531 38.894531 2.238282.296875 5.542969.683594 9.601563 1.082031 15.09375 1.519532 30.257812 2.273438 45.429687 2.253906 69.746094 0 161.023438-14.980468 215.648438-69.597656 45.222656-45.222656 63.199218-110.914062 66.511718-170.855468v-.152344c1.699219-29.359375-.179687-58.816406-5.601562-87.722656-.796875-4.46875-1.75-8.742188-2.789062-12.878907zm-15.519532 3.890625c.695313 2.773438 1.320313 5.679688 1.925782 8.597656 5.625 29.585938 7.589843 59.75 5.847656 89.816407-59.539063-30.800781-110.554688-75.820313-148.527344-131.0625l1.191406-.128907c4.640625-.472656 9.25-.800781 13.816406-1.121093 3.089844-.183594 6.136719-.304688 9.167969-.40625l2.929688-.097657c3.359375-.085937 6.695312-.144531 9.96875-.144531 20.855469-.042969 41.675781 1.6875 62.238281 5.175781l1.414062.25c1.9375.351563 3.746094.710938 5.523438 1.078126 2.886719.601562 5.742188 1.210937 8.316406 1.855468 12.410156 4.050782 22.136719 13.777344 26.1875 26.1875zm-344.304687 293.023438c-3.433594-30.832032-3.886719-61.921875-1.351563-92.839844 56.875 24.351562 104.816406 65.710938 137.246094 118.398438-28.964844 3.097656-58.160156 3.488281-87.199219 1.175781-5.183593-.496094-10.304687-.910157-15.625-1.601563-14.566406-1.933594-31.375-12.039062-33.070312-25.132812zm290.398437-36.625c-20.855468 20.847656-67.640625 49.121094-136.878906 60.464844-35.035156-60.105469-88.925781-106.96875-153.3125-133.320313 6.191406-55.824219 22.992188-117.296875 61.511719-155.824219 34.503906-34.503906 80.152343-51.199218 124.167969-58.082031 41.136718 62.277344 97.988281 112.589844 164.800781 145.859375-5.089844 48.917969-21.382813 102.007812-60.289063 140.902344zm0 0" data-original="#000000" class="active-path" data-old_color="#000000" fill="#0783F7"/><path d="m8 440.039062c2.121094 0 4.15625-.84375 5.652344-2.34375l64-64c3.035156-3.136718 2.992187-8.128906-.09375-11.214843-3.085938-3.085938-8.078125-3.128907-11.214844-.09375l-64 64c-2.2890625 2.285156-2.972656 5.726562-1.734375 8.714843 1.238281 2.988282 4.152344 4.9375 7.390625 4.9375zm0 0" data-original="#000000" class="active-path" data-old_color="#000000" fill="#0783F7"/><path d="m70.34375 425.695312c3.121094 3.125 8.1875 3.125 11.308594 0l28-28c3.035156-3.136718 2.992187-8.128906-.09375-11.214843-3.085938-3.085938-8.078125-3.128907-11.214844-.09375l-28 28c-3.125 3.121093-3.125 8.1875 0 11.308593zm0 0" data-original="#000000" class="active-path" data-old_color="#000000" fill="#0783F7"/></g> </svg>
