<?xml version="1.0"?>
<svg xmlns="http://www.w3.org/2000/svg" height="512px" viewBox="0 -72 480.11853 480" width="512px" class=""><g><path d="m400.058594 109.507812v34.550782h16v-35.933594c0-.859375-.140625-1.714844-.40625-2.53125-6.8125-17.332031-19.175782-31.921875-35.160156-41.476562l-8.863282 13.316406c12.554688 7.507812 22.484375 18.707031 28.429688 32.074218zm0 0" data-original="#000000" class="active-path" data-old_color="#000000" fill="#0783F7"/><path d="m448.058594 160.859375v-56.800781c0-.441406-.039063-.882813-.109375-1.320313-.691407-4.183593-19.28125-102.6796872-207.890625-102.6796872-188.605469 0-207.199219 98.4960942-207.886719 102.6796872-.074219.4375-.109375.878907-.113281 1.320313v56.800781c-19.207032 2.8125-33.089844 19.820313-32.0000002 39.199219 0 4.417968 3.5820312 8 8.0000002 8 12.640625-.027344 24.75 5.082031 33.542968 14.160156 2.066407 1.703125 4.210938 3.441406 6.457032 5.152344v12.6875c.035156 5.632812 1.570312 11.15625 4.449218 16h-12.449218c-4.417969 0-8 3.582031-8 8v48c0 13.253906 10.746094 24 24 24h368c13.253906 0 24-10.746094 24-24v-48c0-4.417969-3.582032-8-8-8h-12.449219c2.882813-4.84375 4.417969-10.367188 4.449219-16v-12.71875c2.234375-1.695313 4.367187-3.425782 6.402344-5.113282 8.8125-9.085937 20.941406-14.199218 33.597656-14.167968 4.417968 0 8-3.582032 8-8 1.089844-19.378906-12.792969-36.386719-32-39.199219zm-400-56c1.800781-8.433594 23.441406-88.800781 192-88.800781 168.800781 0 190.265625 80.59375 192 88.800781v55.199219h-384zm384 207.199219c0 4.417968-3.582032 8-8 8h-368c-4.417969 0-8-3.582032-8-8v-40h384zm-16-72c0 8.835937-7.164063 16-16 16h-224v-16h-16v16h-80c-8.835938 0-16-7.164063-16-16v-3.589844c6.824218 2.46875 14.039062 3.6875 21.296875 3.589844 16.371093.078125 32.105469-6.335938 43.761719-17.832032 8.8125-9.054687 20.914062-14.164062 33.554687-14.164062 12.636719 0 24.738281 5.109375 33.554687 14.164062 24.332032 23.785157 63.203126 23.785157 87.535157 0 7.605469-7.675781 17.574219-12.570312 28.296875-13.894531v15.726563h16v-14.878906c8.597656 2.335937 16.460937 6.828124 22.839844 13.046874 11.667968 11.5 27.414062 17.910157 43.792968 17.832032 7.28125.101562 14.523438-1.125 21.367188-3.617188zm12.207031-30.167969c-8.824219 9.070313-20.941406 14.1875-33.597656 14.1875s-24.773438-5.117187-33.601563-14.1875c-24.339844-23.78125-63.210937-23.78125-87.550781 0-8.816406 9.054687-20.921875 14.164063-33.558594 14.164063-12.640625 0-24.746093-5.109376-33.5625-14.164063-24.332031-23.777344-63.195312-23.777344-87.527343 0-8.8125 9.058594-20.910157 14.167969-33.546876 14.167969-12.636718 0-24.738281-5.109375-33.550781-14.167969-9.546875-9.257813-21.75-15.304687-34.902343-17.296875 3.039062-10.164062 12.589843-16.976562 23.191406-16.535156h44.6875l-10.34375 10.34375c-2.078125 2.007812-2.914063 4.984375-2.179688 7.78125.730469 2.796875 2.914063 4.980468 5.710938 5.714844 2.796875.730468 5.773437-.105469 7.78125-2.183594l21.65625-21.65625h124.6875v24c0 4.417968 3.582031 8 8 8 4.417968 0 8-3.582032 8-8v-24h124.6875l21.65625 21.65625c3.140625 3.03125 8.128906 2.988281 11.214844-.097656 3.085937-3.085938 3.128906-8.074219.097656-11.214844l-10.34375-10.34375h44.6875c10.609375-.441406 20.164062 6.371094 23.199218 16.542968-13.179687 1.980469-25.410156 8.023438-34.992187 17.289063zm0 0" data-original="#000000" class="active-path" data-old_color="#000000" fill="#0783F7"/><path d="m176.058594 64.058594h16v16h-16zm0 0" data-original="#000000" class="active-path" data-old_color="#000000" fill="#0783F7"/><path d="m192.058594 32.058594h16v16h-16zm0 0" data-original="#000000" class="active-path" data-old_color="#000000" fill="#0783F7"/><path d="m208.058594 48.058594h16v16h-16zm0 0" data-original="#000000" class="active-path" data-old_color="#000000" fill="#0783F7"/><path d="m240.058594 64.058594h16v16h-16zm0 0" data-original="#000000" class="active-path" data-old_color="#000000" fill="#0783F7"/><path d="m256.058594 32.058594h16v16h-16zm0 0" data-original="#000000" class="active-path" data-old_color="#000000" fill="#0783F7"/><path d="m272.058594 48.058594h16v16h-16zm0 0" data-original="#000000" class="active-path" data-old_color="#000000" fill="#0783F7"/><path d="m400.058594 288.058594h16v16h-16zm0 0" data-original="#000000" class="active-path" data-old_color="#000000" fill="#0783F7"/><path d="m144.058594 224.058594h16v16h-16zm0 0" data-original="#000000" class="active-path" data-old_color="#000000" fill="#0783F7"/></g> </svg>
